<svg width="316" height="251" viewBox="0 0 316 251" fill="none" xmlns="http://www.w3.org/2000/svg">
<mask id="path-1-outside-1_2_23" maskUnits="userSpaceOnUse" x="96" y="120" width="196" height="106" fill="black">
<rect fill="white" x="96" y="120" width="196" height="106"/>
<path d="M113.545 126.909V220H102.273V126.909H113.545ZM164.875 220H136.148V126.909H166.148C175.178 126.909 182.905 128.773 189.33 132.5C195.754 136.197 200.678 141.515 204.102 148.455C207.527 155.364 209.239 163.636 209.239 173.273C209.239 182.97 207.511 191.318 204.057 198.318C200.602 205.288 195.572 210.652 188.966 214.409C182.36 218.136 174.33 220 164.875 220ZM147.42 210H164.148C171.845 210 178.223 208.515 183.284 205.545C188.345 202.576 192.117 198.348 194.602 192.864C197.087 187.379 198.33 180.848 198.33 173.273C198.33 165.758 197.102 159.288 194.648 153.864C192.193 148.409 188.527 144.227 183.648 141.318C178.769 138.379 172.693 136.909 165.42 136.909H147.42V210ZM228.148 220V126.909H284.33V136.909H239.42V168.364H281.42V178.364H239.42V210H285.057V220H228.148Z"/>
</mask>
<path d="M113.545 126.909V220H102.273V126.909H113.545ZM164.875 220H136.148V126.909H166.148C175.178 126.909 182.905 128.773 189.33 132.5C195.754 136.197 200.678 141.515 204.102 148.455C207.527 155.364 209.239 163.636 209.239 173.273C209.239 182.97 207.511 191.318 204.057 198.318C200.602 205.288 195.572 210.652 188.966 214.409C182.36 218.136 174.33 220 164.875 220ZM147.42 210H164.148C171.845 210 178.223 208.515 183.284 205.545C188.345 202.576 192.117 198.348 194.602 192.864C197.087 187.379 198.33 180.848 198.33 173.273C198.33 165.758 197.102 159.288 194.648 153.864C192.193 148.409 188.527 144.227 183.648 141.318C178.769 138.379 172.693 136.909 165.42 136.909H147.42V210ZM228.148 220V126.909H284.33V136.909H239.42V168.364H281.42V178.364H239.42V210H285.057V220H228.148Z" fill="black"/>
<path d="M113.545 126.909H119.545V120.909H113.545V126.909ZM113.545 220V226H119.545V220H113.545ZM102.273 220H96.2727V226H102.273V220ZM102.273 126.909V120.909H96.2727V126.909H102.273ZM113.545 126.909H107.545V220H113.545H119.545V126.909H113.545ZM113.545 220V214H102.273V220V226H113.545V220ZM102.273 220H108.273V126.909H102.273H96.2727V220H102.273ZM102.273 126.909V132.909H113.545V126.909V120.909H102.273V126.909ZM136.148 220H130.148V226H136.148V220ZM136.148 126.909V120.909H130.148V126.909H136.148ZM189.33 132.5L186.319 137.69L186.328 137.695L186.337 137.7L189.33 132.5ZM204.102 148.455L198.722 151.11L198.726 151.119L204.102 148.455ZM204.057 198.318L209.433 200.983L209.437 200.973L204.057 198.318ZM188.966 214.409L191.914 219.635L191.923 219.63L191.932 219.624L188.966 214.409ZM147.42 210H141.42V216H147.42V210ZM183.284 205.545L180.247 200.371L183.284 205.545ZM194.648 153.864L189.176 156.326L189.181 156.337L194.648 153.864ZM183.648 141.318L180.551 146.457L180.563 146.465L180.575 146.472L183.648 141.318ZM147.42 136.909V130.909H141.42V136.909H147.42ZM164.875 220V214H136.148V220V226H164.875V220ZM136.148 220H142.148V126.909H136.148H130.148V220H136.148ZM136.148 126.909V132.909H166.148V126.909V120.909H136.148V126.909ZM166.148 126.909V132.909C174.348 132.909 180.988 134.597 186.319 137.69L189.33 132.5L192.341 127.31C184.823 122.949 176.008 120.909 166.148 120.909V126.909ZM189.33 132.5L186.337 137.7C191.684 140.777 195.799 145.187 198.722 151.11L204.102 148.455L209.483 145.799C205.557 137.843 199.824 131.617 192.322 127.3L189.33 132.5ZM204.102 148.455L198.726 151.119C201.651 157.019 203.239 164.335 203.239 173.273H209.239H215.239C215.239 162.937 213.403 153.708 209.478 145.79L204.102 148.455ZM209.239 173.273H203.239C203.239 182.267 201.637 189.664 198.676 195.663L204.057 198.318L209.437 200.973C213.386 192.972 215.239 183.672 215.239 173.273H209.239ZM204.057 198.318L198.681 195.654C195.744 201.579 191.54 206.042 185.999 209.194L188.966 214.409L191.932 219.624C199.604 215.261 205.46 208.997 209.433 200.983L204.057 198.318ZM188.966 214.409L186.018 209.183C180.507 212.292 173.548 214 164.875 214V220V226C175.111 226 184.212 223.98 191.914 219.635L188.966 214.409ZM147.42 210V216H164.148V210V204H147.42V210ZM164.148 210V216C172.588 216 180.095 214.374 186.321 210.72L183.284 205.545L180.247 200.371C176.352 202.657 171.101 204 164.148 204V210ZM183.284 205.545L186.321 210.72C192.48 207.106 197.086 201.922 200.068 195.34L194.602 192.864L189.137 190.388C187.149 194.775 184.21 198.046 180.247 200.371L183.284 205.545ZM194.602 192.864L200.068 195.34C202.983 188.903 204.33 181.489 204.33 173.273H198.33H192.33C192.33 180.208 191.191 185.854 189.137 190.388L194.602 192.864ZM198.33 173.273H204.33C204.33 165.121 203 157.767 200.114 151.39L194.648 153.864L189.181 156.337C191.205 160.809 192.33 166.394 192.33 173.273H198.33ZM194.648 153.864L200.119 151.401C197.188 144.888 192.714 139.738 186.721 136.165L183.648 141.318L180.575 146.472C184.339 148.716 187.198 151.93 189.176 156.326L194.648 153.864ZM183.648 141.318L186.744 136.179C180.705 132.54 173.487 130.909 165.42 130.909V136.909V142.909C171.9 142.909 176.833 144.217 180.551 146.457L183.648 141.318ZM165.42 136.909V130.909H147.42V136.909V142.909H165.42V136.909ZM147.42 136.909H141.42V210H147.42H153.42V136.909H147.42ZM228.148 220H222.148V226H228.148V220ZM228.148 126.909V120.909H222.148V126.909H228.148ZM284.33 126.909H290.33V120.909H284.33V126.909ZM284.33 136.909V142.909H290.33V136.909H284.33ZM239.42 136.909V130.909H233.42V136.909H239.42ZM239.42 168.364H233.42V174.364H239.42V168.364ZM281.42 168.364H287.42V162.364H281.42V168.364ZM281.42 178.364V184.364H287.42V178.364H281.42ZM239.42 178.364V172.364H233.42V178.364H239.42ZM239.42 210H233.42V216H239.42V210ZM285.057 210H291.057V204H285.057V210ZM285.057 220V226H291.057V220H285.057ZM228.148 220H234.148V126.909H228.148H222.148V220H228.148ZM228.148 126.909V132.909H284.33V126.909V120.909H228.148V126.909ZM284.33 126.909H278.33V136.909H284.33H290.33V126.909H284.33ZM284.33 136.909V130.909H239.42V136.909V142.909H284.33V136.909ZM239.42 136.909H233.42V168.364H239.42H245.42V136.909H239.42ZM239.42 168.364V174.364H281.42V168.364V162.364H239.42V168.364ZM281.42 168.364H275.42V178.364H281.42H287.42V168.364H281.42ZM281.42 178.364V172.364H239.42V178.364V184.364H281.42V178.364ZM239.42 178.364H233.42V210H239.42H245.42V178.364H239.42ZM239.42 210V216H285.057V210V204H239.42V210ZM285.057 210H279.057V220H285.057H291.057V210H285.057ZM285.057 220V214H228.148V220V226H285.057V220Z" fill="black" mask="url(#path-1-outside-1_2_23)"/>
<ellipse cx="166.042" cy="125.248" rx="147.5" ry="23" transform="rotate(-16 166.042 125.248)" fill="#3C3C3C"/>
<ellipse cx="165.562" cy="125.385" rx="77" ry="11" transform="rotate(-16 165.562 125.385)" fill="#555555"/>
<rect x="81.1629" y="63.2414" width="128" height="83" transform="rotate(-16 81.1629 63.2414)" fill="#555555"/>
<path d="M204.204 27.9598L239.638 104.404L214.664 111.566L204.204 27.9598Z" fill="#555555"/>
<path d="M81.1629 63.2414L116.597 139.686L91.6226 146.847L81.1629 63.2414Z" fill="#555555"/>
<ellipse cx="142.821" cy="46.0813" rx="64" ry="5.5" transform="rotate(-16 142.821 46.0813)" fill="#3C3C3C"/>
</svg>
